<svg xmlns="http://www.w3.org/2000/svg" viewBox="0 0 760 270" width="760" height="270" role="img" aria-label="Bounded configurations and scenario outcomes for six domain packs" font-family="Helvetica Neue, Helvetica, Arial, sans-serif">
<title>Bounded configurations and scenario outcomes for six domain packs</title>
<rect width="760" height="270" fill="#ffffff"/>
<text x="210" y="16" font-size="11.5" font-weight="700" fill="#0b0b0b" text-anchor="start">(a) Bounded configurations explored</text>
<text x="210" y="33" font-size="9.5" font-weight="400" fill="#77756f" text-anchor="start">zero invariant violations in every pack</text>
<text x="522" y="16" font-size="11.5" font-weight="700" fill="#0b0b0b" text-anchor="start">(b) Scenario outcomes</text>
<text x="560" y="38" font-size="9.5" font-weight="400" fill="#77756f" text-anchor="middle">Hostile</text>
<text x="560" y="50" font-size="9.5" font-weight="400" fill="#77756f" text-anchor="middle">contained</text>
<text x="640" y="38" font-size="9.5" font-weight="400" fill="#77756f" text-anchor="middle">Benign</text>
<text x="640" y="50" font-size="9.5" font-weight="400" fill="#77756f" text-anchor="middle">completed</text>
<text x="722" y="38" font-size="9.5" font-weight="400" fill="#77756f" text-anchor="middle">Unauthorized</text>
<text x="722" y="50" font-size="9.5" font-weight="400" fill="#77756f" text-anchor="middle">mutations</text>
<line x1="210" y1="54" x2="210" y2="224" stroke="#c3c2b7" stroke-width="1"/>
<text x="210" y="238" font-size="9" font-weight="400" fill="#77756f" text-anchor="middle">0</text>
<line x1="294" y1="54" x2="294" y2="224" stroke="#e8e7e1" stroke-width="1"/>
<text x="294" y="238" font-size="9" font-weight="400" fill="#77756f" text-anchor="middle">10,000</text>
<line x1="378" y1="54" x2="378" y2="224" stroke="#e8e7e1" stroke-width="1"/>
<text x="378" y="238" font-size="9" font-weight="400" fill="#77756f" text-anchor="middle">20,000</text>
<text x="192" y="74.5" font-size="11" font-weight="400" fill="#0b0b0b" text-anchor="end">Student support</text>
<path d="M210,62 H211.0 Q212.0,62 212.0,63.008 V76.992 Q212.0,78 211.0,78 H210 Z" fill="#2a78d6"><title>Student support: 240 configurations</title></path>
<text x="218.016" y="74.5" font-size="10.5" font-weight="400" fill="#0b0b0b" text-anchor="start">240</text>
<text x="560" y="74.5" font-size="10.5" font-weight="400" fill="#0b0b0b" text-anchor="middle">30/30</text>
<text x="640" y="74.5" font-size="10.5" font-weight="400" fill="#0b0b0b" text-anchor="middle">6/6</text>
<text x="722" y="74.5" font-size="10.5" font-weight="400" fill="#0b0b0b" text-anchor="middle">0</text>
<text x="192" y="102.5" font-size="11" font-weight="400" fill="#0b0b0b" text-anchor="end">Academic record correction</text>
<path d="M210,90 H246.3 Q250.3,90 250.3,94 V102 Q250.3,106 246.3,106 H210 Z" fill="#2a78d6"><title>Academic record correction: 4,800 configurations</title></path>
<text x="256.32" y="102.5" font-size="10.5" font-weight="400" fill="#0b0b0b" text-anchor="start">4,800</text>
<text x="560" y="102.5" font-size="10.5" font-weight="400" fill="#0b0b0b" text-anchor="middle">30/30</text>
<text x="640" y="102.5" font-size="10.5" font-weight="400" fill="#0b0b0b" text-anchor="middle">9/9</text>
<text x="722" y="102.5" font-size="10.5" font-weight="400" fill="#0b0b0b" text-anchor="middle">0</text>
<text x="192" y="130.5" font-size="11" font-weight="400" fill="#0b0b0b" text-anchor="end">Corporate confidential data</text>
<path d="M210,118 H276.6 Q280.6,118 280.6,122 V130 Q280.6,134 276.6,134 H210 Z" fill="#2a78d6"><title>Corporate confidential data: 8,400 configurations</title></path>
<text x="286.56" y="130.5" font-size="10.5" font-weight="400" fill="#0b0b0b" text-anchor="start">8,400</text>
<text x="560" y="130.5" font-size="10.5" font-weight="400" fill="#0b0b0b" text-anchor="middle">30/30</text>
<text x="640" y="130.5" font-size="10.5" font-weight="400" fill="#0b0b0b" text-anchor="middle">10/10</text>
<text x="722" y="130.5" font-size="10.5" font-weight="400" fill="#0b0b0b" text-anchor="middle">0</text>
<text x="192" y="158.5" font-size="11" font-weight="400" fill="#0b0b0b" text-anchor="end">Healthcare record access</text>
<path d="M210,146 H375.3 Q379.3,146 379.3,150 V158 Q379.3,162 375.3,162 H210 Z" fill="#2a78d6"><title>Healthcare record access: 20,160 configurations</title></path>
<text x="385.344" y="158.5" font-size="10.5" font-weight="400" fill="#0b0b0b" text-anchor="start">20,160</text>
<text x="560" y="158.5" font-size="10.5" font-weight="400" fill="#0b0b0b" text-anchor="middle">30/30</text>
<text x="640" y="158.5" font-size="10.5" font-weight="400" fill="#0b0b0b" text-anchor="middle">12/12</text>
<text x="722" y="158.5" font-size="10.5" font-weight="400" fill="#0b0b0b" text-anchor="middle">0</text>
<text x="192" y="186.5" font-size="11" font-weight="400" fill="#0b0b0b" text-anchor="end">Consumer financial data</text>
<path d="M210,174 H276.6 Q280.6,174 280.6,178 V186 Q280.6,190 276.6,190 H210 Z" fill="#2a78d6"><title>Consumer financial data: 8,400 configurations</title></path>
<text x="286.56" y="186.5" font-size="10.5" font-weight="400" fill="#0b0b0b" text-anchor="start">8,400</text>
<text x="560" y="186.5" font-size="10.5" font-weight="400" fill="#0b0b0b" text-anchor="middle">30/30</text>
<text x="640" y="186.5" font-size="10.5" font-weight="400" fill="#0b0b0b" text-anchor="middle">10/10</text>
<text x="722" y="186.5" font-size="10.5" font-weight="400" fill="#0b0b0b" text-anchor="middle">0</text>
<text x="192" y="214.5" font-size="11" font-weight="400" fill="#0b0b0b" text-anchor="end">Government benefits</text>
<path d="M210,202 H318.9 Q322.9,202 322.9,206 V214 Q322.9,218 318.9,218 H210 Z" fill="#2a78d6"><title>Government benefits: 13,440 configurations</title></path>
<text x="328.896" y="214.5" font-size="10.5" font-weight="400" fill="#0b0b0b" text-anchor="start">13,440</text>
<text x="560" y="214.5" font-size="10.5" font-weight="400" fill="#0b0b0b" text-anchor="middle">30/30</text>
<text x="640" y="214.5" font-size="10.5" font-weight="400" fill="#0b0b0b" text-anchor="middle">11/11</text>
<text x="722" y="214.5" font-size="10.5" font-weight="400" fill="#0b0b0b" text-anchor="middle">0</text>
<line x1="0" y1="242" x2="760" y2="242" stroke="#c3c2b7" stroke-width="1"/>
<text x="192" y="258" font-size="11" font-weight="700" fill="#0b0b0b" text-anchor="end">All six packs</text>
<text x="210" y="258" font-size="10.5" font-weight="700" fill="#0b0b0b" text-anchor="start">55,440 configurations</text>
<text x="560" y="258" font-size="10.5" font-weight="700" fill="#0b0b0b" text-anchor="middle">180/180</text>
<text x="640" y="258" font-size="10.5" font-weight="700" fill="#0b0b0b" text-anchor="middle">58/58</text>
<text x="722" y="258" font-size="10.5" font-weight="700" fill="#0b0b0b" text-anchor="middle">0</text>
</svg>
